<mxfile host="drawio-plugin" agent="Mozilla/5.0 (X11; Linux x86_64) AppleWebKit/537.36 (KHTML, like Gecko) Chrome/122.0.0.0 Safari/537.36" modified="2025-10-27T23:13:21.510Z" etag="w6jDI5LS4kXUnQk1SYmq" version="22.1.22" type="embed">
  <diagram name="Page-1" id="lxfAD8bv0Ddd2qwCVEQX">
    <mxGraphModel dx="1609" dy="2106" grid="1" gridSize="10" guides="1" tooltips="1" connect="1" arrows="1" fold="1" page="1" pageScale="1" pageWidth="1920" pageHeight="1200" math="0" shadow="0">
      <root>
        <mxCell id="0" />
        <mxCell id="1" parent="0" />
        <mxCell id="0fKAWLFeeV_Ge1ZabWR7-1" value="&amp;lt;&amp;lt;abstract&amp;gt;&amp;gt;&lt;br&gt;User" style="swimlane;fontStyle=3;align=center;verticalAlign=top;childLayout=stackLayout;horizontal=1;startSize=40;horizontalStack=0;resizeParent=1;resizeParentMax=0;resizeLast=0;collapsible=1;marginBottom=0;whiteSpace=wrap;html=1;fillColor=#e1d5e7;strokeColor=#9673a6;" parent="1" vertex="1">
          <mxGeometry x="520" y="-370" width="280" height="230" as="geometry" />
        </mxCell>
        <mxCell id="0fKAWLFeeV_Ge1ZabWR7-2" value="- userId: String&lt;br&gt;- name: String&lt;br&gt;- email: String&lt;br&gt;&lt;div&gt;- password: String&lt;/div&gt;&lt;div&gt;&lt;br&gt;&lt;/div&gt;" style="text;strokeColor=none;fillColor=none;align=left;verticalAlign=top;spacingLeft=4;spacingRight=4;overflow=hidden;rotatable=0;points=[[0,0.5],[1,0.5]];portConstraint=eastwest;whiteSpace=wrap;html=1;" parent="0fKAWLFeeV_Ge1ZabWR7-1" vertex="1">
          <mxGeometry y="40" width="280" height="60" as="geometry" />
        </mxCell>
        <mxCell id="0fKAWLFeeV_Ge1ZabWR7-3" value="" style="line;strokeWidth=1;fillColor=none;align=left;verticalAlign=middle;spacingTop=-1;spacingLeft=3;spacingRight=3;rotatable=0;labelPosition=right;points=[];portConstraint=eastwest;strokeColor=inherit;" parent="0fKAWLFeeV_Ge1ZabWR7-1" vertex="1">
          <mxGeometry y="100" width="280" height="8" as="geometry" />
        </mxCell>
        <mxCell id="0fKAWLFeeV_Ge1ZabWR7-4" value="&lt;div&gt;&amp;nbsp;+ User(userId, name, email, password)&lt;/div&gt;&lt;div&gt;+ getUserId(): String&lt;/div&gt;&lt;div&gt;+ getName(): String&lt;/div&gt;&lt;div&gt;+ getEmail(): String&lt;/div&gt;+ getUserType(): String&lt;br&gt;&lt;div&gt;+ hasPermission(String): boolean&lt;/div&gt;&lt;div&gt;+ authenticate(password: String): boolean&lt;/div&gt;&lt;div&gt;&lt;br&gt;&lt;/div&gt;" style="text;strokeColor=none;fillColor=none;align=left;verticalAlign=top;spacingLeft=4;spacingRight=4;overflow=hidden;rotatable=0;points=[[0,0.5],[1,0.5]];portConstraint=eastwest;whiteSpace=wrap;html=1;fontStyle=2" parent="0fKAWLFeeV_Ge1ZabWR7-1" vertex="1">
          <mxGeometry y="108" width="280" height="122" as="geometry" />
        </mxCell>
        <mxCell id="0fKAWLFeeV_Ge1ZabWR7-5" value="Admin" style="swimlane;fontStyle=1;align=center;verticalAlign=top;childLayout=stackLayout;horizontal=1;startSize=26;horizontalStack=0;resizeParent=1;resizeParentMax=0;resizeLast=0;collapsible=1;marginBottom=0;whiteSpace=wrap;html=1;" parent="1" vertex="1">
          <mxGeometry x="10" y="20" width="310" height="160" as="geometry" />
        </mxCell>
        <mxCell id="0fKAWLFeeV_Ge1ZabWR7-6" value="" style="line;strokeWidth=1;fillColor=none;align=left;verticalAlign=middle;spacingTop=-1;spacingLeft=3;spacingRight=3;rotatable=0;labelPosition=right;points=[];portConstraint=eastwest;strokeColor=inherit;" parent="0fKAWLFeeV_Ge1ZabWR7-5" vertex="1">
          <mxGeometry y="26" width="310" height="8" as="geometry" />
        </mxCell>
        <mxCell id="0fKAWLFeeV_Ge1ZabWR7-7" value="+ Admin(userId, name, email, password)&lt;br&gt;+ getUserType(): String&lt;br&gt;+ hasPermission(permission: String): boolean&lt;br&gt;+ createUser(): void&lt;div&gt;+ deleteUser(userId: String): void&lt;br&gt;&lt;/div&gt;&lt;div&gt;+ manageRooms(): void&lt;/div&gt;&lt;div&gt;+ viewAllBookings(): void&lt;br&gt;&lt;/div&gt;" style="text;strokeColor=none;fillColor=none;align=left;verticalAlign=top;spacingLeft=4;spacingRight=4;overflow=hidden;rotatable=0;points=[[0,0.5],[1,0.5]];portConstraint=eastwest;whiteSpace=wrap;html=1;" parent="0fKAWLFeeV_Ge1ZabWR7-5" vertex="1">
          <mxGeometry y="34" width="310" height="126" as="geometry" />
        </mxCell>
        <mxCell id="0fKAWLFeeV_Ge1ZabWR7-8" value="Reception" style="swimlane;fontStyle=1;align=center;verticalAlign=top;childLayout=stackLayout;horizontal=1;startSize=30;horizontalStack=0;resizeParent=1;resizeParentMax=0;resizeLast=0;collapsible=1;marginBottom=0;whiteSpace=wrap;html=1;" parent="1" vertex="1">
          <mxGeometry x="370" y="20" width="280" height="160" as="geometry" />
        </mxCell>
        <mxCell id="0fKAWLFeeV_Ge1ZabWR7-9" value="" style="line;strokeWidth=1;fillColor=none;align=left;verticalAlign=middle;spacingTop=-1;spacingLeft=3;spacingRight=3;rotatable=0;labelPosition=right;points=[];portConstraint=eastwest;strokeColor=inherit;" parent="0fKAWLFeeV_Ge1ZabWR7-8" vertex="1">
          <mxGeometry y="30" width="280" height="8" as="geometry" />
        </mxCell>
        <mxCell id="0fKAWLFeeV_Ge1ZabWR7-10" value="+ Reception(userId, name, email, password)&lt;br&gt;+ getUserType(): String&lt;br&gt;+ hasPermission(permission: String): boolean&lt;br&gt;+ createBooking(): void&lt;div&gt;+ checkInGuest(): void&lt;/div&gt;&lt;div&gt;+ checkOutGuest(): void&lt;/div&gt;&lt;div&gt;+ manageGuestProfile(): void&lt;/div&gt;" style="text;strokeColor=none;fillColor=none;align=left;verticalAlign=top;spacingLeft=4;spacingRight=4;overflow=hidden;rotatable=0;points=[[0,0.5],[1,0.5]];portConstraint=eastwest;whiteSpace=wrap;html=1;" parent="0fKAWLFeeV_Ge1ZabWR7-8" vertex="1">
          <mxGeometry y="38" width="280" height="122" as="geometry" />
        </mxCell>
        <mxCell id="0fKAWLFeeV_Ge1ZabWR7-11" value="Cleaner" style="swimlane;fontStyle=1;align=center;verticalAlign=top;childLayout=stackLayout;horizontal=1;startSize=26;horizontalStack=0;resizeParent=1;resizeParentMax=0;resizeLast=0;collapsible=1;marginBottom=0;whiteSpace=wrap;html=1;" parent="1" vertex="1">
          <mxGeometry x="690" y="20" width="310" height="160" as="geometry" />
        </mxCell>
        <mxCell id="0fKAWLFeeV_Ge1ZabWR7-12" value="" style="line;strokeWidth=1;fillColor=none;align=left;verticalAlign=middle;spacingTop=-1;spacingLeft=3;spacingRight=3;rotatable=0;labelPosition=right;points=[];portConstraint=eastwest;strokeColor=inherit;" parent="0fKAWLFeeV_Ge1ZabWR7-11" vertex="1">
          <mxGeometry y="26" width="310" height="8" as="geometry" />
        </mxCell>
        <mxCell id="0fKAWLFeeV_Ge1ZabWR7-13" value="+ Cleaner(userId, name, email, password)&lt;br&gt;+ getUserType(): String&lt;br&gt;+ hasPermission(permission: String): boolean&lt;br&gt;+ viewCleaningList(): void&lt;div&gt;+ markRoomCleaned(roomNumber: String): void&lt;/div&gt;" style="text;strokeColor=none;fillColor=none;align=left;verticalAlign=top;spacingLeft=4;spacingRight=4;overflow=hidden;rotatable=0;points=[[0,0.5],[1,0.5]];portConstraint=eastwest;whiteSpace=wrap;html=1;" parent="0fKAWLFeeV_Ge1ZabWR7-11" vertex="1">
          <mxGeometry y="34" width="310" height="126" as="geometry" />
        </mxCell>
        <mxCell id="0fKAWLFeeV_Ge1ZabWR7-14" value="Manager" style="swimlane;fontStyle=1;align=center;verticalAlign=top;childLayout=stackLayout;horizontal=1;startSize=26;horizontalStack=0;resizeParent=1;resizeParentMax=0;resizeLast=0;collapsible=1;marginBottom=0;whiteSpace=wrap;html=1;" parent="1" vertex="1">
          <mxGeometry x="1040" y="20" width="290" height="160" as="geometry" />
        </mxCell>
        <mxCell id="0fKAWLFeeV_Ge1ZabWR7-15" value="" style="line;strokeWidth=1;fillColor=none;align=left;verticalAlign=middle;spacingTop=-1;spacingLeft=3;spacingRight=3;rotatable=0;labelPosition=right;points=[];portConstraint=eastwest;strokeColor=inherit;" parent="0fKAWLFeeV_Ge1ZabWR7-14" vertex="1">
          <mxGeometry y="26" width="290" height="8" as="geometry" />
        </mxCell>
        <mxCell id="0fKAWLFeeV_Ge1ZabWR7-16" value="&lt;div&gt;+ Manager(userId, name, email, password)&lt;/div&gt;&lt;div&gt;+ getUserType(): String&lt;/div&gt;&lt;div&gt;+ hasPermission(permission: String): boolean&lt;/div&gt;+ generateReports(): void&lt;div&gt;+ viewOccupancyStats(): void&lt;/div&gt;&lt;div&gt;&lt;div&gt;+ addRoomsToClean(): void&lt;/div&gt;&lt;/div&gt;&lt;div&gt;+ viewFeedback(): void&lt;/div&gt;" style="text;strokeColor=none;fillColor=none;align=left;verticalAlign=top;spacingLeft=4;spacingRight=4;overflow=hidden;rotatable=0;points=[[0,0.5],[1,0.5]];portConstraint=eastwest;whiteSpace=wrap;html=1;" parent="0fKAWLFeeV_Ge1ZabWR7-14" vertex="1">
          <mxGeometry y="34" width="290" height="126" as="geometry" />
        </mxCell>
        <mxCell id="GUEST-1" value="Guest" style="swimlane;fontStyle=1;align=center;verticalAlign=top;childLayout=stackLayout;horizontal=1;startSize=26;horizontalStack=0;resizeParent=1;resizeParentMax=0;resizeLast=0;collapsible=1;marginBottom=0;whiteSpace=wrap;html=1;fillColor=#d5e8d4;strokeColor=#82b366;" parent="1" vertex="1">
          <mxGeometry x="1380" y="20" width="280" height="220" as="geometry" />
        </mxCell>
        <mxCell id="GUEST-2" value="- guestId: String&lt;br&gt;- name: String&lt;br&gt;- email: String&lt;br&gt;- phone: String&lt;br&gt;- preferences: String" style="text;strokeColor=none;fillColor=none;align=left;verticalAlign=top;spacingLeft=4;spacingRight=4;overflow=hidden;rotatable=0;points=[[0,0.5],[1,0.5]];portConstraint=eastwest;whiteSpace=wrap;html=1;" parent="GUEST-1" vertex="1">
          <mxGeometry y="26" width="280" height="74" as="geometry" />
        </mxCell>
        <mxCell id="GUEST-3" value="" style="line;strokeWidth=1;fillColor=none;align=left;verticalAlign=middle;spacingTop=-1;spacingLeft=3;spacingRight=3;rotatable=0;labelPosition=right;points=[];portConstraint=eastwest;strokeColor=inherit;" parent="GUEST-1" vertex="1">
          <mxGeometry y="100" width="280" height="8" as="geometry" />
        </mxCell>
        <mxCell id="GUEST-4" value="+ Guest(guestId, name, email, phone)&lt;br&gt;+ getGuestId(): String&lt;br&gt;+ getName(): String&lt;br&gt;+ getEmail(): String&lt;br&gt;+ getPhone(): String&lt;br&gt;+ getPreferences(): String&lt;br&gt;+ setPreferences(prefs: String): void" style="text;strokeColor=none;fillColor=none;align=left;verticalAlign=top;spacingLeft=4;spacingRight=4;overflow=hidden;rotatable=0;points=[[0,0.5],[1,0.5]];portConstraint=eastwest;whiteSpace=wrap;html=1;" parent="GUEST-1" vertex="1">
          <mxGeometry y="108" width="280" height="112" as="geometry" />
        </mxCell>
        <mxCell id="ROOM-1" value="&amp;lt;&amp;lt;abstract&amp;gt;&amp;gt;&lt;br&gt;Room" style="swimlane;fontStyle=3;align=center;verticalAlign=top;childLayout=stackLayout;horizontal=1;startSize=40;horizontalStack=0;resizeParent=1;resizeParentMax=0;resizeLast=0;collapsible=1;marginBottom=0;whiteSpace=wrap;html=1;fillColor=#fff2cc;strokeColor=#d6b656;" parent="1" vertex="1">
          <mxGeometry x="10" y="520" width="280" height="240" as="geometry" />
        </mxCell>
        <mxCell id="ROOM-2" value="- roomNumber: String&lt;br&gt;- roomType: String&lt;br&gt;- pricePerNight: double&lt;br&gt;- status: String&lt;br&gt;" style="text;strokeColor=none;fillColor=none;align=left;verticalAlign=top;spacingLeft=4;spacingRight=4;overflow=hidden;rotatable=0;points=[[0,0.5],[1,0.5]];portConstraint=eastwest;whiteSpace=wrap;html=1;" parent="ROOM-1" vertex="1">
          <mxGeometry y="40" width="280" height="80" as="geometry" />
        </mxCell>
        <mxCell id="ROOM-3" value="" style="line;strokeWidth=1;fillColor=none;align=left;verticalAlign=middle;spacingTop=-1;spacingLeft=3;spacingRight=3;rotatable=0;labelPosition=right;points=[];portConstraint=eastwest;strokeColor=inherit;" parent="ROOM-1" vertex="1">
          <mxGeometry y="120" width="280" height="8" as="geometry" />
        </mxCell>
        <mxCell id="ROOM-4" value="+ Room(roomNumber, type, price, floor)&lt;br&gt;+ getRoomNumber(): String&lt;br&gt;+ getRoomType(): String&lt;br&gt;+ getPricePerNight(): double&lt;br&gt;+ getStatus(): String&lt;br&gt;+ setStatus(status: String): void&lt;br&gt;+ isAvailable(): boolean" style="text;strokeColor=none;fillColor=none;align=left;verticalAlign=top;spacingLeft=4;spacingRight=4;overflow=hidden;rotatable=0;points=[[0,0.5],[1,0.5]];portConstraint=eastwest;whiteSpace=wrap;html=1;fontStyle=2" parent="ROOM-1" vertex="1">
          <mxGeometry y="128" width="280" height="112" as="geometry" />
        </mxCell>
        <mxCell id="STANDARD-1" value="StandardRoom" style="swimlane;fontStyle=1;align=center;verticalAlign=top;childLayout=stackLayout;horizontal=1;startSize=26;horizontalStack=0;resizeParent=1;resizeParentMax=0;resizeLast=0;collapsible=1;marginBottom=0;whiteSpace=wrap;html=1;" parent="1" vertex="1">
          <mxGeometry x="10" y="820" width="280" height="86" as="geometry" />
        </mxCell>
        <mxCell id="STANDARD-2" value="" style="line;strokeWidth=1;fillColor=none;align=left;verticalAlign=middle;spacingTop=-1;spacingLeft=3;spacingRight=3;rotatable=0;labelPosition=right;points=[];portConstraint=eastwest;strokeColor=inherit;" parent="STANDARD-1" vertex="1">
          <mxGeometry y="26" width="280" height="8" as="geometry" />
        </mxCell>
        <mxCell id="STANDARD-3" value="+ StandardRoom(roomNumber)&lt;br&gt;+ getRoomType(): String" style="text;strokeColor=none;fillColor=none;align=left;verticalAlign=top;spacingLeft=4;spacingRight=4;overflow=hidden;rotatable=0;points=[[0,0.5],[1,0.5]];portConstraint=eastwest;whiteSpace=wrap;html=1;" parent="STANDARD-1" vertex="1">
          <mxGeometry y="34" width="280" height="52" as="geometry" />
        </mxCell>
        <mxCell id="SUPERIOR-1" value="SuperiorRoom" style="swimlane;fontStyle=1;align=center;verticalAlign=top;childLayout=stackLayout;horizontal=1;startSize=26;horizontalStack=0;resizeParent=1;resizeParentMax=0;resizeLast=0;collapsible=1;marginBottom=0;whiteSpace=wrap;html=1;" parent="1" vertex="1">
          <mxGeometry x="340" y="820" width="280" height="86" as="geometry" />
        </mxCell>
        <mxCell id="SUPERIOR-2" value="" style="line;strokeWidth=1;fillColor=none;align=left;verticalAlign=middle;spacingTop=-1;spacingLeft=3;spacingRight=3;rotatable=0;labelPosition=right;points=[];portConstraint=eastwest;strokeColor=inherit;" parent="SUPERIOR-1" vertex="1">
          <mxGeometry y="26" width="280" height="8" as="geometry" />
        </mxCell>
        <mxCell id="SUPERIOR-3" value="+ SuperiorRoom(roomNumber)&lt;br&gt;+ getRoomType(): String" style="text;strokeColor=none;fillColor=none;align=left;verticalAlign=top;spacingLeft=4;spacingRight=4;overflow=hidden;rotatable=0;points=[[0,0.5],[1,0.5]];portConstraint=eastwest;whiteSpace=wrap;html=1;" parent="SUPERIOR-1" vertex="1">
          <mxGeometry y="34" width="280" height="52" as="geometry" />
        </mxCell>
        <mxCell id="SUITE-1" value="SuiteRoom" style="swimlane;fontStyle=1;align=center;verticalAlign=top;childLayout=stackLayout;horizontal=1;startSize=26;horizontalStack=0;resizeParent=1;resizeParentMax=0;resizeLast=0;collapsible=1;marginBottom=0;whiteSpace=wrap;html=1;" parent="1" vertex="1">
          <mxGeometry x="670" y="820" width="280" height="86" as="geometry" />
        </mxCell>
        <mxCell id="SUITE-2" value="" style="line;strokeWidth=1;fillColor=none;align=left;verticalAlign=middle;spacingTop=-1;spacingLeft=3;spacingRight=3;rotatable=0;labelPosition=right;points=[];portConstraint=eastwest;strokeColor=inherit;" parent="SUITE-1" vertex="1">
          <mxGeometry y="26" width="280" height="8" as="geometry" />
        </mxCell>
        <mxCell id="SUITE-3" value="+ SuiteRoom(roomNumber)&lt;br&gt;+ getRoomType(): String" style="text;strokeColor=none;fillColor=none;align=left;verticalAlign=top;spacingLeft=4;spacingRight=4;overflow=hidden;rotatable=0;points=[[0,0.5],[1,0.5]];portConstraint=eastwest;whiteSpace=wrap;html=1;" parent="SUITE-1" vertex="1">
          <mxGeometry y="34" width="280" height="52" as="geometry" />
        </mxCell>
        <mxCell id="0fKAWLFeeV_Ge1ZabWR7-41" value="RoomInventory" style="swimlane;fontStyle=1;align=center;verticalAlign=top;childLayout=stackLayout;horizontal=1;startSize=26;horizontalStack=0;resizeParent=1;resizeParentMax=0;resizeLast=0;collapsible=1;marginBottom=0;whiteSpace=wrap;html=1;" parent="1" vertex="1">
          <mxGeometry x="690" y="390" width="300" height="242" as="geometry">
            <mxRectangle x="320" y="190" width="100" height="30" as="alternateBounds" />
          </mxGeometry>
        </mxCell>
        <mxCell id="0fKAWLFeeV_Ge1ZabWR7-42" value="- roomList : List&amp;lt;Room&amp;gt;" style="text;strokeColor=none;fillColor=none;align=left;verticalAlign=top;spacingLeft=4;spacingRight=4;overflow=hidden;rotatable=0;points=[[0,0.5],[1,0.5]];portConstraint=eastwest;whiteSpace=wrap;html=1;" parent="0fKAWLFeeV_Ge1ZabWR7-41" vertex="1">
          <mxGeometry y="26" width="300" height="26" as="geometry" />
        </mxCell>
        <mxCell id="0fKAWLFeeV_Ge1ZabWR7-43" value="" style="line;strokeWidth=1;fillColor=none;align=left;verticalAlign=middle;spacingTop=-1;spacingLeft=3;spacingRight=3;rotatable=0;labelPosition=right;points=[];portConstraint=eastwest;strokeColor=inherit;" parent="0fKAWLFeeV_Ge1ZabWR7-41" vertex="1">
          <mxGeometry y="52" width="300" height="8" as="geometry" />
        </mxCell>
        <mxCell id="0fKAWLFeeV_Ge1ZabWR7-44" value="- totalRooms : int" style="text;strokeColor=none;fillColor=none;align=left;verticalAlign=top;spacingLeft=4;spacingRight=4;overflow=hidden;rotatable=0;points=[[0,0.5],[1,0.5]];portConstraint=eastwest;whiteSpace=wrap;html=1;" parent="0fKAWLFeeV_Ge1ZabWR7-41" vertex="1">
          <mxGeometry y="60" width="300" height="26" as="geometry" />
        </mxCell>
        <mxCell id="0fKAWLFeeV_Ge1ZabWR7-45" value="- availableRooms : int" style="text;strokeColor=none;fillColor=none;align=left;verticalAlign=top;spacingLeft=4;spacingRight=4;overflow=hidden;rotatable=0;points=[[0,0.5],[1,0.5]];portConstraint=eastwest;whiteSpace=wrap;html=1;" parent="0fKAWLFeeV_Ge1ZabWR7-41" vertex="1">
          <mxGeometry y="86" width="300" height="26" as="geometry" />
        </mxCell>
        <mxCell id="0fKAWLFeeV_Ge1ZabWR7-46" value="- bookedRooms : int" style="text;strokeColor=none;fillColor=none;align=left;verticalAlign=top;spacingLeft=4;spacingRight=4;overflow=hidden;rotatable=0;points=[[0,0.5],[1,0.5]];portConstraint=eastwest;whiteSpace=wrap;html=1;" parent="0fKAWLFeeV_Ge1ZabWR7-41" vertex="1">
          <mxGeometry y="112" width="300" height="26" as="geometry" />
        </mxCell>
        <mxCell id="0fKAWLFeeV_Ge1ZabWR7-47" value="+ addRoom(room : Room) : void" style="text;strokeColor=none;fillColor=none;align=left;verticalAlign=top;spacingLeft=4;spacingRight=4;overflow=hidden;rotatable=0;points=[[0,0.5],[1,0.5]];portConstraint=eastwest;whiteSpace=wrap;html=1;" parent="0fKAWLFeeV_Ge1ZabWR7-41" vertex="1">
          <mxGeometry y="138" width="300" height="26" as="geometry" />
        </mxCell>
        <mxCell id="0fKAWLFeeV_Ge1ZabWR7-48" value="+ removeRoom(roomNumber : int) : void" style="text;strokeColor=none;fillColor=none;align=left;verticalAlign=top;spacingLeft=4;spacingRight=4;overflow=hidden;rotatable=0;points=[[0,0.5],[1,0.5]];portConstraint=eastwest;whiteSpace=wrap;html=1;" parent="0fKAWLFeeV_Ge1ZabWR7-41" vertex="1">
          <mxGeometry y="164" width="300" height="26" as="geometry" />
        </mxCell>
        <mxCell id="0fKAWLFeeV_Ge1ZabWR7-49" value="+ updateRoomStatus(roomNumber :int ):void" style="text;strokeColor=none;fillColor=none;align=left;verticalAlign=top;spacingLeft=4;spacingRight=4;overflow=hidden;rotatable=0;points=[[0,0.5],[1,0.5]];portConstraint=eastwest;whiteSpace=wrap;html=1;" parent="0fKAWLFeeV_Ge1ZabWR7-41" vertex="1">
          <mxGeometry y="190" width="300" height="26" as="geometry" />
        </mxCell>
        <mxCell id="0fKAWLFeeV_Ge1ZabWR7-50" value="+ searchRoomByType(type : String) : List&amp;lt;Room&amp;gt;" style="text;strokeColor=none;fillColor=none;align=left;verticalAlign=top;spacingLeft=4;spacingRight=4;overflow=hidden;rotatable=0;points=[[0,0.5],[1,0.5]];portConstraint=eastwest;whiteSpace=wrap;html=1;" parent="0fKAWLFeeV_Ge1ZabWR7-41" vertex="1">
          <mxGeometry y="216" width="300" height="26" as="geometry" />
        </mxCell>
        <mxCell id="0fKAWLFeeV_Ge1ZabWR7-51" value="" style="endArrow=none;html=1;" parent="0fKAWLFeeV_Ge1ZabWR7-41" edge="1">
          <mxGeometry width="50" height="50" relative="1" as="geometry">
            <mxPoint y="140" as="sourcePoint" />
            <mxPoint x="300" y="140" as="targetPoint" />
          </mxGeometry>
        </mxCell>
        <mxCell id="10" value="" style="endArrow=block;dashed=1;endFill=0;endSize=12;html=1;rounded=0;exitX=0.5;exitY=0;exitDx=0;exitDy=0;entryX=0.489;entryY=1.016;entryDx=0;entryDy=0;entryPerimeter=0;" parent="1" source="0fKAWLFeeV_Ge1ZabWR7-8" target="0fKAWLFeeV_Ge1ZabWR7-4" edge="1">
          <mxGeometry width="160" relative="1" as="geometry">
            <mxPoint x="230" y="-30" as="sourcePoint" />
            <mxPoint x="390" y="-30" as="targetPoint" />
          </mxGeometry>
        </mxCell>
        <mxCell id="13" value="" style="endArrow=block;dashed=1;endFill=0;endSize=12;html=1;rounded=0;exitX=0.5;exitY=0;exitDx=0;exitDy=0;entryX=0.611;entryY=1.016;entryDx=0;entryDy=0;entryPerimeter=0;" parent="1" source="0fKAWLFeeV_Ge1ZabWR7-11" target="0fKAWLFeeV_Ge1ZabWR7-4" edge="1">
          <mxGeometry width="160" relative="1" as="geometry">
            <mxPoint x="840" y="-30" as="sourcePoint" />
            <mxPoint x="1000" y="-30" as="targetPoint" />
          </mxGeometry>
        </mxCell>
        <mxCell id="16" value="" style="endArrow=block;dashed=1;endFill=0;endSize=12;html=1;rounded=0;exitX=0.532;exitY=-0.006;exitDx=0;exitDy=0;exitPerimeter=0;" parent="1" source="0fKAWLFeeV_Ge1ZabWR7-5" target="0fKAWLFeeV_Ge1ZabWR7-4" edge="1">
          <mxGeometry width="160" relative="1" as="geometry">
            <mxPoint x="610" y="-50" as="sourcePoint" />
            <mxPoint x="770" y="-50" as="targetPoint" />
          </mxGeometry>
        </mxCell>
        <mxCell id="17" value="" style="endArrow=block;dashed=1;endFill=0;endSize=12;html=1;rounded=0;exitX=0.5;exitY=0;exitDx=0;exitDy=0;" parent="1" source="0fKAWLFeeV_Ge1ZabWR7-14" target="0fKAWLFeeV_Ge1ZabWR7-4" edge="1">
          <mxGeometry width="160" relative="1" as="geometry">
            <mxPoint x="610" y="-50" as="sourcePoint" />
            <mxPoint x="770" y="-50" as="targetPoint" />
          </mxGeometry>
        </mxCell>
        <mxCell id="ROOM-INHERIT-1" value="" style="endArrow=block;dashed=1;endFill=0;endSize=12;html=1;rounded=0;exitX=0.5;exitY=0;exitDx=0;exitDy=0;entryX=0.5;entryY=1;entryDx=0;entryDy=0;" parent="1" source="STANDARD-1" target="ROOM-1" edge="1">
          <mxGeometry width="160" relative="1" as="geometry">
            <mxPoint x="150" y="800" as="sourcePoint" />
            <mxPoint x="310" y="800" as="targetPoint" />
          </mxGeometry>
        </mxCell>
        <mxCell id="ROOM-INHERIT-2" value="" style="endArrow=block;dashed=1;endFill=0;endSize=12;html=1;rounded=0;exitX=0.5;exitY=0;exitDx=0;exitDy=0;entryX=0.5;entryY=1;entryDx=0;entryDy=0;" parent="1" source="SUPERIOR-1" target="ROOM-1" edge="1">
          <mxGeometry width="160" relative="1" as="geometry">
            <mxPoint x="480" y="800" as="sourcePoint" />
            <mxPoint x="640" y="800" as="targetPoint" />
            <Array as="points">
              <mxPoint x="480" y="790" />
              <mxPoint x="150" y="790" />
            </Array>
          </mxGeometry>
        </mxCell>
        <mxCell id="ROOM-INHERIT-3" value="" style="endArrow=block;dashed=1;endFill=0;endSize=12;html=1;rounded=0;exitX=0.5;exitY=0;exitDx=0;exitDy=0;entryX=0.5;entryY=1;entryDx=0;entryDy=0;" parent="1" source="SUITE-1" target="ROOM-1" edge="1">
          <mxGeometry width="160" relative="1" as="geometry">
            <mxPoint x="810" y="800" as="sourcePoint" />
            <mxPoint x="970" y="800" as="targetPoint" />
            <Array as="points">
              <mxPoint x="810" y="790" />
              <mxPoint x="150" y="790" />
            </Array>
          </mxGeometry>
        </mxCell>
        <mxCell id="ROOM-INVENTORY-LINK" value="" style="endArrow=open;endFill=1;endSize=12;html=1;rounded=0;exitX=0;exitY=0.5;exitDx=0;exitDy=0;entryX=1;entryY=0.5;entryDx=0;entryDy=0;" parent="1" source="0fKAWLFeeV_Ge1ZabWR7-42" target="ROOM-2" edge="1">
          <mxGeometry width="160" relative="1" as="geometry">
            <mxPoint x="1200" y="640" as="sourcePoint" />
            <mxPoint x="1360" y="640" as="targetPoint" />
          </mxGeometry>
        </mxCell>
        <mxCell id="ROOM-INVENTORY-LABEL" value="contains" style="edgeLabel;html=1;align=center;verticalAlign=middle;resizable=0;points=[];" parent="ROOM-INVENTORY-LINK" vertex="1" connectable="0">
          <mxGeometry x="-0.1" y="-1" relative="1" as="geometry">
            <mxPoint x="80" y="-11" as="offset" />
          </mxGeometry>
        </mxCell>
      </root>
    </mxGraphModel>
  </diagram>
</mxfile>
